<svg width="200" height="129" viewBox="0 0 200 129" fill="none" xmlns="http://www.w3.org/2000/svg">
<mask id="mask0_204_40" style="mask-type:luminance" maskUnits="userSpaceOnUse" x="0" y="0" width="200" height="129">
<path d="M200 0H0V128.571H200V0Z" fill="white"/>
</mask>
<g mask="url(#mask0_204_40)">
<path d="M57.1324 92.4302C57.1324 91.8527 57.1136 90.7813 56.9557 90.5023C56.8895 90.3888 56.7218 90.3241 56.4895 90.3053L56.2564 90.2873C56.2008 90.2211 56.2188 90.1008 56.2745 90.0632C56.6293 90.082 56.9737 90.0911 57.3369 90.0911C57.7286 90.0911 57.9797 90.082 58.3158 90.0632C58.3902 90.1098 58.3805 90.2302 58.3346 90.2873L58.1106 90.3053C57.8775 90.3241 57.7008 90.4083 57.6444 90.5302C57.5151 90.8369 57.5151 91.9076 57.5151 92.4302V93.4843C57.5151 94.2941 57.3842 95.1512 56.8617 95.7091C56.4609 96.1482 55.7707 96.3911 55.082 96.3911C54.4391 96.3911 53.7963 96.2685 53.3399 95.8783C52.8466 95.4685 52.6128 94.7888 52.6128 93.6798V91.4798C52.6128 90.5106 52.5948 90.352 52.0534 90.3053L51.8218 90.2873C51.7654 90.2497 51.7842 90.0911 51.8399 90.0632C52.3053 90.082 52.6226 90.0911 52.9948 90.0911C53.3775 90.0911 53.685 90.082 54.1406 90.0632C54.197 90.0911 54.2158 90.2497 54.1602 90.2873L53.9361 90.3053C53.3955 90.352 53.3775 90.5106 53.3775 91.4798V93.4933C53.3775 94.9926 53.8429 95.9798 55.2684 95.9798C56.6196 95.9798 57.1324 94.9196 57.1324 93.5023V92.4302Z" fill="white"/>
</g>
<mask id="mask1_204_40" style="mask-type:luminance" maskUnits="userSpaceOnUse" x="0" y="0" width="200" height="129">
<path d="M200 0H0V128.571H200V0Z" fill="white"/>
</mask>
<g mask="url(#mask1_204_40)">
<path d="M69.3076 94.658C69.3076 94.9369 69.3076 96.0459 69.3354 96.288C69.3173 96.3437 69.2617 96.3911 69.1587 96.3911C69.0474 96.2324 68.7767 95.9061 67.967 94.9843L65.8045 92.5241C65.5527 92.2347 64.9196 91.4715 64.7233 91.2655H64.7053C64.6677 91.3775 64.6579 91.5933 64.6579 91.8708V93.9016C64.6579 94.3407 64.6677 95.552 64.8264 95.8317C64.882 95.9339 65.0685 95.9896 65.3023 96.0076L65.5903 96.0369C65.6459 96.1106 65.6369 96.2219 65.5715 96.2692C65.1527 96.2512 64.8264 96.2407 64.4812 96.2407C64.0903 96.2407 63.8391 96.2512 63.5121 96.2692C63.4467 96.2219 63.4376 96.0926 63.494 96.0369L63.7451 96.0076C63.9602 95.9798 64.1091 95.9241 64.1557 95.8211C64.2858 95.488 64.2767 94.3497 64.2767 93.9016V91.2099C64.2767 90.9482 64.2677 90.7535 64.0715 90.5384C63.9406 90.4083 63.7166 90.3437 63.494 90.3159L63.3361 90.2963C63.2797 90.2407 63.2797 90.1008 63.3534 90.0632C63.7451 90.0911 64.2399 90.0911 64.4061 90.0911C64.5564 90.0911 64.7143 90.082 64.8354 90.0632C65.0218 90.5384 66.1218 91.7693 66.4286 92.1129L67.3324 93.1294C67.976 93.8459 68.4324 94.3685 68.8707 94.8166H68.8888C68.9263 94.7693 68.9263 94.6196 68.9263 94.4241V92.4302C68.9263 91.9926 68.9166 90.7813 68.7399 90.5023C68.6842 90.4166 68.5346 90.361 68.1617 90.3159L68.0038 90.2963C67.9391 90.2407 67.9474 90.0911 68.0226 90.0632C68.4504 90.082 68.7677 90.0911 69.1218 90.0911C69.5218 90.0911 69.7647 90.082 70.0805 90.0632C70.1557 90.1098 70.1557 90.2407 70.1 90.2963L69.97 90.3159C69.6715 90.361 69.485 90.4362 69.4482 90.5106C69.2895 90.8474 69.3076 92.0016 69.3076 92.4302V94.658Z" fill="white"/>
</g>
<mask id="mask2_204_40" style="mask-type:luminance" maskUnits="userSpaceOnUse" x="0" y="0" width="200" height="129">
<path d="M200 0H0V128.571H200V0Z" fill="white"/>
</mask>
<g mask="url(#mask2_204_40)">
<path d="M76.2482 91.5076C76.2482 90.5196 76.2294 90.361 75.6797 90.3151L75.4467 90.2963C75.3903 90.258 75.4098 90.0903 75.4655 90.0625C75.9309 90.082 76.2482 90.0903 76.6399 90.0903C77.0121 90.0903 77.3286 90.082 77.7948 90.0625C77.8504 90.0903 77.8685 90.258 77.8128 90.2963L77.5805 90.3151C77.0309 90.361 77.0121 90.5196 77.0121 91.5076V94.8249C77.0121 95.8121 77.0309 95.9422 77.5805 96.0069L77.8128 96.0362C77.8685 96.073 77.8504 96.2407 77.7948 96.2685C77.3286 96.2512 77.0121 96.2407 76.6399 96.2407C76.2482 96.2407 75.9309 96.2512 75.4655 96.2685C75.4098 96.2407 75.3903 96.0926 75.4467 96.0362L75.6797 96.0069C76.2294 95.9422 76.2482 95.8121 76.2482 94.8249V91.5076Z" fill="white"/>
</g>
<mask id="mask3_204_40" style="mask-type:luminance" maskUnits="userSpaceOnUse" x="0" y="0" width="200" height="129">
<path d="M200 0H0V128.571H200V0Z" fill="white"/>
</mask>
<g mask="url(#mask3_204_40)">
<path d="M83.794 91.079C83.5797 90.558 83.4399 90.361 83.0391 90.3151L82.8715 90.2963C82.8061 90.2407 82.8151 90.1099 82.8903 90.0625C83.1602 90.082 83.4579 90.0911 83.8587 90.0911C84.2692 90.0911 84.5948 90.082 84.9865 90.0625C85.0519 90.1008 85.0707 90.2407 85.0053 90.2963L84.8655 90.3151C84.5113 90.361 84.4369 90.4166 84.4271 90.4918C84.4459 90.5858 84.6038 91.0896 84.8933 91.7971C85.3219 92.8783 85.7504 93.9482 86.2173 95.0114C86.5046 94.3963 86.897 93.4377 87.1113 92.943C87.3813 92.3099 87.8196 91.2565 87.9775 90.8557C88.0527 90.6602 88.0617 90.558 88.0617 90.4918C88.0617 90.4272 87.9685 90.352 87.6422 90.3151L87.4745 90.2963C87.4091 90.2407 87.4279 90.1008 87.4933 90.0625C87.7542 90.082 88.1083 90.0911 88.4617 90.0911C88.77 90.0911 89.0587 90.082 89.3655 90.0625C89.4309 90.1008 89.4309 90.249 89.385 90.2963L89.1053 90.3151C88.882 90.3332 88.7414 90.446 88.6203 90.6415C88.3594 91.079 87.9963 91.8354 87.5767 92.7843L87.0737 93.9294C86.7008 94.7888 86.2632 95.8678 86.1046 96.3625C86.0767 96.3805 86.0391 96.3903 86.0031 96.3903C85.9557 96.3903 85.9091 96.3805 85.8625 96.3625C85.7594 95.9708 85.5925 95.5151 85.4339 95.1234L83.794 91.079Z" fill="white"/>
</g>
<mask id="mask4_204_40" style="mask-type:luminance" maskUnits="userSpaceOnUse" x="0" y="0" width="200" height="129">
<path d="M200 0H0V128.571H200V0Z" fill="white"/>
</mask>
<g mask="url(#mask4_204_40)">
<path d="M95.0105 91.4903C95.0105 90.5196 94.9917 90.3798 94.4429 90.3159L94.2932 90.2963C94.2376 90.258 94.2564 90.0911 94.312 90.0632C94.7135 90.082 95.0293 90.0911 95.4113 90.0911H97.1632C97.7594 90.0911 98.3098 90.0911 98.4211 90.0632C98.4767 90.2219 98.5323 90.8926 98.5707 91.3038C98.5323 91.3595 98.3842 91.3775 98.3376 91.3211C98.1978 90.8835 98.1143 90.558 97.6286 90.4362C97.4338 90.3888 97.1353 90.3798 96.7248 90.3798H96.0541C95.7759 90.3798 95.776 90.3993 95.776 90.7535V92.6166C95.776 92.8783 95.8038 92.8783 96.082 92.8783H96.6233C97.0135 92.8783 97.303 92.8587 97.4143 92.8219C97.5278 92.7843 97.5925 92.7279 97.6391 92.4948L97.7143 92.1129C97.7594 92.0572 97.9173 92.0572 97.9557 92.1219C97.9557 92.3467 97.9173 92.7106 97.9173 93.0647C97.9173 93.3993 97.9557 93.755 97.9557 93.9572C97.9173 94.0234 97.7594 94.0234 97.7143 93.9677L97.6286 93.6053C97.5925 93.4377 97.5278 93.2978 97.3414 93.2512C97.2105 93.2129 96.9857 93.2038 96.6233 93.2038H96.082C95.8038 93.2038 95.776 93.2129 95.776 93.4565V94.7692C95.776 95.2632 95.8038 95.5798 95.9511 95.7369C96.0639 95.849 96.2594 95.952 97.0797 95.952C97.7978 95.952 98.0669 95.9151 98.2729 95.8121C98.4399 95.7196 98.691 95.3933 98.9331 94.9091C98.9993 94.8617 99.1301 94.8896 99.1662 94.9753C99.1015 95.3008 98.8684 96.0174 98.7466 96.2685C97.9083 96.2512 97.0797 96.2407 96.2504 96.2407H95.4113C95.0105 96.2407 94.694 96.2512 94.1436 96.2685C94.0872 96.2407 94.0699 96.0926 94.1256 96.0369L94.4323 96.0076C94.9639 95.9617 95.0105 95.8211 95.0105 94.8444V91.4903Z" fill="white"/>
</g>
<mask id="mask5_204_40" style="mask-type:luminance" maskUnits="userSpaceOnUse" x="0" y="0" width="200" height="129">
<path d="M200 0H0V128.571H200V0Z" fill="white"/>
</mask>
<g mask="url(#mask5_204_40)">
<path d="M105.108 91.4993C105.108 90.6136 105.08 90.455 104.698 90.4076L104.4 90.3715C104.335 90.3242 104.335 90.1745 104.411 90.1377C104.931 90.0903 105.575 90.0625 106.487 90.0625C107.066 90.0625 107.614 90.1099 108.044 90.343C108.49 90.5753 108.817 90.9956 108.817 91.649C108.817 92.5332 108.118 93.0174 107.653 93.2039C107.606 93.2595 107.653 93.3535 107.698 93.4287C108.444 94.6302 108.938 95.376 109.572 95.9061C109.731 96.0452 109.964 96.1482 110.215 96.1663C110.262 96.1851 110.271 96.2603 110.224 96.2963C110.141 96.3242 109.991 96.3437 109.814 96.3437C109.022 96.3437 108.547 96.1099 107.886 95.17C107.643 94.8249 107.262 94.1821 106.972 93.7633C106.832 93.558 106.683 93.4655 106.311 93.4655C105.89 93.4655 105.873 93.4738 105.873 93.6708V94.8445C105.873 95.8211 105.89 95.9339 106.432 96.0076L106.627 96.0369C106.683 96.082 106.665 96.2407 106.609 96.2685C106.19 96.2512 105.873 96.2407 105.5 96.2407C105.108 96.2407 104.772 96.2512 104.335 96.2685C104.28 96.2407 104.26 96.1016 104.317 96.0369L104.549 96.0076C105.089 95.943 105.108 95.8211 105.108 94.8445V91.4993ZM105.873 92.8309C105.873 92.9986 105.873 93.1008 105.901 93.1392C105.929 93.167 106.068 93.1851 106.544 93.1851C106.88 93.1851 107.234 93.1482 107.503 92.9422C107.754 92.7475 107.968 92.4212 107.968 91.7881C107.968 91.0512 107.514 90.352 106.477 90.352C105.901 90.352 105.873 90.3888 105.873 90.6505V92.8309Z" fill="white"/>
</g>
<mask id="mask6_204_40" style="mask-type:luminance" maskUnits="userSpaceOnUse" x="0" y="0" width="200" height="129">
<path d="M200 0H0V128.571H200V0Z" fill="white"/>
</mask>
<g mask="url(#mask6_204_40)">
<path d="M116.369 96.3903C115.587 96.3903 115.093 96.1482 114.915 96.0451C114.804 95.8399 114.683 95.179 114.664 94.7414C114.711 94.6752 114.85 94.6572 114.889 94.7136C115.028 95.1888 115.41 96.1008 116.491 96.1008C117.273 96.1008 117.656 95.5903 117.656 95.0301C117.656 94.6196 117.571 94.1624 116.892 93.7263L116.008 93.1482C115.541 92.8391 115 92.3091 115 91.5459C115 90.6602 115.69 89.9421 116.901 89.9421C117.189 89.9421 117.524 89.9978 117.768 90.0624C117.888 90.1008 118.018 90.1181 118.093 90.1181C118.177 90.3429 118.261 90.8639 118.261 91.2564C118.224 91.3121 118.074 91.3399 118.029 91.2842C117.908 90.8361 117.656 90.2301 116.761 90.2301C115.849 90.2301 115.652 90.8361 115.652 91.2654C115.652 91.8068 116.099 92.1963 116.444 92.4106L117.189 92.8775C117.777 93.2406 118.355 93.7805 118.355 94.6662C118.355 95.691 117.581 96.3903 116.369 96.3903Z" fill="white"/>
</g>
<mask id="mask7_204_40" style="mask-type:luminance" maskUnits="userSpaceOnUse" x="0" y="0" width="200" height="129">
<path d="M200 0H0V128.571H200V0Z" fill="white"/>
</mask>
<g mask="url(#mask7_204_40)">
<path d="M124.688 91.5076C124.688 90.5196 124.671 90.361 124.12 90.3151L123.886 90.2963C123.831 90.258 123.85 90.0903 123.906 90.0625C124.373 90.082 124.688 90.0903 125.08 90.0903C125.453 90.0903 125.769 90.082 126.236 90.0625C126.293 90.0903 126.311 90.258 126.254 90.2963L126.02 90.3151C125.472 90.361 125.453 90.5196 125.453 91.5076V94.8249C125.453 95.8121 125.472 95.9422 126.02 96.0069L126.254 96.0362C126.311 96.073 126.293 96.2407 126.236 96.2685C125.769 96.2512 125.453 96.2407 125.08 96.2407C124.688 96.2407 124.373 96.2512 123.906 96.2685C123.85 96.2407 123.831 96.0926 123.886 96.0362L124.12 96.0069C124.671 95.9422 124.688 95.8121 124.688 94.8249V91.5076Z" fill="white"/>
</g>
<mask id="mask8_204_40" style="mask-type:luminance" maskUnits="userSpaceOnUse" x="0" y="0" width="200" height="129">
<path d="M200 0H0V128.571H200V0Z" fill="white"/>
</mask>
<g mask="url(#mask8_204_40)">
<path d="M135.033 94.8444C135.033 95.8211 135.05 95.9617 135.59 96.0075L135.89 96.0369C135.946 96.0737 135.927 96.2406 135.871 96.2692C135.339 96.2511 135.023 96.2406 134.65 96.2406C134.277 96.2406 133.952 96.2511 133.354 96.2692C133.298 96.2406 133.28 96.082 133.354 96.0369L133.69 96.0075C134.221 95.9617 134.268 95.8211 134.268 94.8444V90.6782C134.268 90.3887 134.268 90.3805 133.988 90.3805H133.476C133.075 90.3805 132.563 90.3993 132.329 90.6136C132.107 90.8188 132.013 91.0233 131.911 91.2572C131.837 91.3128 131.705 91.2654 131.668 91.1925C131.818 90.7722 131.957 90.1745 132.022 89.803C132.051 89.785 132.171 89.7752 132.2 89.803C132.255 90.1008 132.563 90.091 132.992 90.091H136.766C137.269 90.091 137.353 90.073 137.493 89.8309C137.539 89.8136 137.642 89.8218 137.659 89.8587C137.557 90.2406 137.493 90.9955 137.52 91.276C137.483 91.3497 137.325 91.3496 137.277 91.2933C137.25 91.0617 137.183 90.7166 137.045 90.6136C136.831 90.4549 136.477 90.3805 135.963 90.3805H135.302C135.023 90.3805 135.033 90.3887 135.033 90.697V94.8444Z" fill="white"/>
</g>
<mask id="mask9_204_40" style="mask-type:luminance" maskUnits="userSpaceOnUse" x="0" y="0" width="200" height="129">
<path d="M200 0H0V128.571H200V0Z" fill="white"/>
</mask>
<g mask="url(#mask9_204_40)">
<path d="M145.652 94.8249C145.652 95.8204 145.708 95.97 146.211 96.0069L146.567 96.0362C146.622 96.0926 146.604 96.2407 146.548 96.2685C145.969 96.2505 145.652 96.2407 145.28 96.2407C144.887 96.2407 144.554 96.2505 144.059 96.2685C144.003 96.2407 143.984 96.0926 144.039 96.0362L144.33 96.0069C144.87 95.9512 144.887 95.8204 144.887 94.8249V94.349C144.887 93.8369 144.86 93.7159 144.59 93.1948L143.491 91.0505C143.174 90.4354 143.034 90.3888 142.754 90.343L142.493 90.2963C142.438 90.2302 142.448 90.1008 142.512 90.0625C142.81 90.0813 143.146 90.0903 143.594 90.0903C144.022 90.0903 144.357 90.0813 144.59 90.0625C144.674 90.0903 144.674 90.2399 144.618 90.2963L144.498 90.3151C144.172 90.361 144.105 90.4076 144.105 90.4828C144.105 90.5753 144.348 91.1069 144.395 91.2008C144.739 91.8896 145.084 92.6249 145.448 93.27C145.735 92.7745 146.044 92.2347 146.323 91.6941C146.584 91.2091 146.929 90.5753 146.929 90.4633C146.929 90.4076 146.762 90.343 146.538 90.3151L146.37 90.2963C146.305 90.2302 146.314 90.1008 146.389 90.0625C146.723 90.0813 146.995 90.0903 147.283 90.0903C147.572 90.0903 147.832 90.0813 148.15 90.0625C148.225 90.1099 148.234 90.2399 148.169 90.2963L147.908 90.343C147.423 90.4264 147.143 91.0144 146.678 91.8159L146.091 92.8309C145.68 93.5399 145.652 93.6234 145.652 94.3399V94.8249Z" fill="white"/>
</g>
<mask id="mask10_204_40" style="mask-type:luminance" maskUnits="userSpaceOnUse" x="85" y="32" width="31" height="34">
<path d="M115.429 32.6287H85.1624V65.2422H115.429V32.6287Z" fill="white"/>
</mask>
<g mask="url(#mask10_204_40)">
<path d="M108.75 35.9579C108.726 35.912 107.28 35.1962 107.28 35.1962C105.441 34.8105 102.412 34.9797 100.3 35.7564H100.292C98.1789 34.9797 95.1526 34.8105 93.3135 35.1962C93.3135 35.1962 91.8669 35.912 91.8451 35.9579L89.6045 40.9023C89.5316 41.0399 89.6466 41.1571 89.7737 41.1316C93.1797 40.485 97.091 40.2857 100.295 40.2857H100.298C103.501 40.2857 107.413 40.485 110.818 41.1316C110.947 41.1571 111.06 41.0399 110.988 40.9023L108.75 35.9579ZM99.7669 39.518C97.3391 39.4218 93.1496 39.4218 91.0489 40.1737L92.5421 36.4368L93.5594 35.8925L92.4789 38.9707C94.6677 38.5571 97.0887 38.403 99.7729 39.2812L99.7669 39.518ZM100.791 39.518V39.2812C103.474 38.403 105.896 38.5571 108.084 38.9707L106.998 35.8925L108.017 36.4368L109.511 40.1737C107.517 39.4218 103.327 39.4218 100.791 39.518Z" fill="white"/>
</g>
<mask id="mask11_204_40" style="mask-type:luminance" maskUnits="userSpaceOnUse" x="85" y="32" width="31" height="34">
<path d="M115.429 32.6287H85.1624V65.2422H115.429V32.6287Z" fill="white"/>
</mask>
<g mask="url(#mask11_204_40)">
<path d="M114.184 34.1099L114.169 34.1039L114.074 34.082C109.564 33.1174 104.929 32.6287 100.296 32.6287C95.6616 32.6287 91.0202 33.1189 86.5022 34.0851L86.4578 34.0941L86.4157 34.1076C85.6932 34.2858 85.1624 34.964 85.1624 35.7482L85.1639 38.2031C85.1639 55.9084 96.1195 63.0911 99.4774 64.8708C99.7458 65.0136 100.025 65.0866 100.301 65.0866C100.58 65.0866 100.856 65.0136 101.122 64.8685C104.471 63.0933 115.429 55.9084 115.429 38.2031V35.7482C115.429 34.9828 114.913 34.3106 114.184 34.1099ZM99.6789 63.852C95.9766 61.8091 88.5413 56.0144 86.6187 44.1347L86.709 44.1159C90.9421 43.2219 95.303 42.7527 99.6789 42.7114V63.852ZM111.392 52.4655C111.389 52.4685 111.387 52.4745 111.385 52.4783C110.598 54.1076 109.709 55.552 108.772 56.8189C108.77 56.8211 108.77 56.8219 108.769 56.8219C107.916 57.9745 107.032 58.9888 106.151 59.8632V55.0738L103.532 53.3309V62.1392C102.558 62.8738 101.661 63.4407 100.914 63.852V51.5873L103.532 53.3309V47.2354L106.151 48.9768V42.9663C107.026 43.0437 107.9 43.1339 108.769 43.246V50.7196L111.385 52.461V43.6414C112.223 43.7843 113.056 43.9369 113.886 44.1121L113.975 44.1317C113.456 47.3392 112.535 50.0993 111.392 52.4655ZM100.914 45.4911V42.7114C101.788 42.7189 102.661 42.7414 103.532 42.7843V47.2347L100.914 45.4911ZM114.439 38.2031C114.439 39.8159 114.341 41.3377 114.166 42.7775C105.082 40.8587 95.5248 40.8587 86.4278 42.782C86.2518 41.3399 86.1541 39.8166 86.1541 38.2031L86.1526 35.7475C86.1526 35.4144 86.3819 35.1354 86.6924 35.058L86.709 35.0527C91.0909 34.1151 95.636 33.6181 100.296 33.6181C104.951 33.6181 109.49 34.1144 113.865 35.049L113.875 35.0527C114.199 35.1189 114.441 35.4054 114.441 35.7475L114.439 38.2031Z" fill="white"/>
</g>
<mask id="mask12_204_40" style="mask-type:luminance" maskUnits="userSpaceOnUse" x="85" y="32" width="31" height="34">
<path d="M115.429 32.6287H85.1624V65.2422H115.429V32.6287Z" fill="white"/>
</mask>
<g mask="url(#mask12_204_40)">
<path d="M108.769 50.7189L106.151 48.9775V55.073L108.769 56.8151V50.7189Z" fill="white"/>
</g>
<mask id="mask13_204_40" style="mask-type:luminance" maskUnits="userSpaceOnUse" x="85" y="32" width="31" height="34">
<path d="M115.429 32.6287H85.1624V65.2422H115.429V32.6287Z" fill="white"/>
</mask>
<g mask="url(#mask13_204_40)">
<path d="M94.0774 54.5603C96.7195 54.5603 98.8698 52.4107 98.8698 49.7686C98.8698 47.1257 96.7195 44.9761 94.0774 44.9761C91.4353 44.9761 89.2856 47.1257 89.2856 49.7686C89.2856 52.4107 91.4353 54.5603 94.0774 54.5603ZM94.9503 53.8633C95.3195 53.464 95.7601 52.8806 96.0932 52.1227C96.5548 52.2219 96.9503 52.3452 97.2744 52.4678C96.6841 53.1655 95.8729 53.6671 94.9503 53.8633ZM97.636 51.9633C97.2819 51.8197 96.8383 51.6701 96.3059 51.5505C96.4473 51.1046 96.5443 50.6122 96.5721 50.0701H98.2503C98.1999 50.7618 97.9826 51.4046 97.636 51.9633ZM97.636 47.5731C97.9826 48.1325 98.1999 48.7746 98.2503 49.4663H96.5721C96.5443 48.9257 96.4473 48.431 96.3059 47.9866C96.8405 47.8655 97.2819 47.7167 97.636 47.5731ZM97.2736 47.0678C96.9495 47.1911 96.5541 47.3144 96.0924 47.4144C95.7593 46.6543 95.3187 46.0731 94.9496 45.6731C95.8729 45.8693 96.6841 46.3716 97.2736 47.0678ZM94.3789 45.9528C94.7052 46.2881 95.1383 46.8174 95.4729 47.5227C95.1353 47.5716 94.7706 47.6031 94.3789 47.6144V45.9528ZM94.3789 48.2197C94.8563 48.2062 95.3007 48.164 95.7044 48.1001C95.8413 48.5099 95.9368 48.9655 95.9668 49.4663H94.3789V48.2197ZM94.3789 50.0701H95.9668C95.9368 50.5701 95.8413 51.0257 95.7014 51.4362C95.2999 51.3708 94.8563 51.331 94.3789 51.3167V50.0701ZM94.3789 51.9219C94.7699 51.934 95.133 51.9655 95.4691 52.0137C95.136 52.7167 94.7044 53.246 94.3789 53.5798V51.9219ZM90.8811 52.4678C91.2052 52.3452 91.6022 52.2219 92.0638 52.1219C92.3977 52.8813 92.8398 53.4655 93.2097 53.8648C92.2826 53.6686 91.4721 53.1663 90.8811 52.4678ZM93.7744 53.5768C93.4488 53.2392 93.0202 52.7114 92.6871 52.0129C93.0232 51.9655 93.3856 51.934 93.7744 51.9219V53.5768ZM93.7744 51.3167C93.2977 51.331 92.8571 51.3708 92.4556 51.4347C92.3157 51.0257 92.2195 50.5701 92.1909 50.0701H93.7744V51.3167ZM93.7744 49.4663H92.1909C92.2195 48.9663 92.3157 48.5107 92.4556 48.1001C92.8571 48.164 93.2977 48.2062 93.7744 48.2197V49.4663ZM93.7744 47.6144C93.3856 47.6031 93.0232 47.5716 92.6871 47.5234C93.0202 46.8242 93.4488 46.2956 93.7744 45.9595V47.6144ZM93.2097 45.6716C92.8398 46.0716 92.3977 46.6535 92.0638 47.4144C91.6022 47.3144 91.2052 47.1896 90.8819 47.0671C91.4729 46.3701 92.2834 45.8678 93.2097 45.6716ZM90.518 47.5731C90.8729 47.7167 91.3157 47.8655 91.8518 47.9866C91.709 48.431 91.6127 48.9257 91.5849 49.4663H89.9044C89.9533 48.7746 90.1721 48.1317 90.518 47.5731ZM89.9052 50.0701H91.5856C91.6135 50.6114 91.7097 51.1046 91.8511 51.5498C91.3165 51.6701 90.8736 51.8197 90.5187 51.9633C90.1714 51.4046 89.9533 50.7618 89.9052 50.0701Z" fill="white"/>
</g>
<mask id="mask14_204_40" style="mask-type:luminance" maskUnits="userSpaceOnUse" x="32" y="70" width="136" height="19">
<path d="M167.669 70.051H32.3308V88.5322H167.669V70.051Z" fill="white"/>
</mask>
<g mask="url(#mask14_204_40)">
<path d="M36.2015 73.3668C36.2015 70.9916 35.9887 70.7352 34.7255 70.6277L34.1917 70.5856C34.0631 70.4999 34.106 70.1149 34.2346 70.051C35.4744 70.0931 36.2015 70.1149 37.1 70.1149C37.9564 70.1149 38.6834 70.0931 39.5391 70.051C39.6669 70.1149 39.7098 70.4999 39.5819 70.5856L39.2609 70.6277C37.9992 70.7999 37.9564 71.0976 37.9564 73.3668V81.3029C37.9564 82.9916 37.8699 84.4676 37.4646 85.451C36.7579 87.1638 35.2398 88.5322 33.2496 88.5322C32.994 88.5322 32.3308 88.5104 32.3308 88.0826C32.3308 87.7187 32.6504 87.0976 33.1 87.0976C33.3571 87.0976 33.6143 87.1397 33.8925 87.227C34.1917 87.3119 34.491 87.3766 34.7902 87.3766C35.2398 87.3766 35.497 87.1194 35.6466 86.8202C36.1383 85.8142 36.2015 82.6067 36.2015 81.451V73.3668Z" fill="white"/>
</g>
<mask id="mask15_204_40" style="mask-type:luminance" maskUnits="userSpaceOnUse" x="32" y="70" width="136" height="19">
<path d="M167.669 70.051H32.3308V88.5322H167.669V70.051Z" fill="white"/>
</mask>
<g mask="url(#mask15_204_40)">
<path d="M39.5369 78.4036C39.5369 74.7953 42.2444 72.0337 45.9609 72.0337C50.1293 72.0337 52.2226 75.0472 52.2226 78.2232C52.2226 81.8683 49.4436 84.5202 45.9609 84.5202C41.9557 84.5202 39.5369 81.6517 39.5369 78.4036ZM50.4181 78.7826C50.4181 75.8059 49.1015 72.5931 45.6549 72.5931C43.7775 72.5931 41.3421 73.875 41.3421 77.8269C41.3421 80.4961 42.6414 83.9623 46.1955 83.9623C48.3617 83.9623 50.4181 82.3382 50.4181 78.7826Z" fill="white"/>
</g>
<mask id="mask16_204_40" style="mask-type:luminance" maskUnits="userSpaceOnUse" x="32" y="70" width="136" height="19">
<path d="M167.669 70.051H32.3308V88.5322H167.669V70.051Z" fill="white"/>
</mask>
<g mask="url(#mask16_204_40)">
<path d="M56.3218 78.4037C55.4557 78.4037 55.4196 78.4405 55.4196 78.9826V81.5255C55.4196 83.4202 55.5098 83.6728 56.5203 83.7811L57.0429 83.836C57.1519 83.9074 57.1151 84.2322 57.0076 84.2864C56.0324 84.2495 55.4196 84.2322 54.7151 84.2322C53.9399 84.2322 53.3264 84.2691 52.6226 84.2864C52.5143 84.2322 52.479 83.9427 52.5858 83.836L52.8925 83.7811C53.903 83.6006 53.9399 83.4202 53.9399 81.5255V75.0292C53.9399 73.1345 53.8136 72.8285 52.8752 72.7555L52.4053 72.7194C52.297 72.6473 52.3339 72.3224 52.4421 72.2683C53.3264 72.2856 53.9399 72.3225 54.7151 72.3225C55.4196 72.3225 56.0324 72.3052 56.8083 72.2683C56.9166 72.3224 56.9534 72.6473 56.8444 72.7194L56.5015 72.7555C55.4557 72.8638 55.4196 73.1345 55.4196 75.0292V77.1052C55.4196 77.6638 55.4557 77.6826 56.3218 77.6826H61.4827C62.3489 77.6826 62.3858 77.6638 62.3858 77.1052V75.0292C62.3858 73.1345 62.3489 72.8638 61.2842 72.7555L60.9421 72.7194C60.8331 72.6473 60.8685 72.3224 60.9775 72.2683C61.8068 72.3052 62.4211 72.3225 63.1609 72.3225C63.8647 72.3225 64.4782 72.3052 65.2903 72.2683C65.397 72.3224 65.4339 72.6473 65.3271 72.7194L64.9467 72.7555C63.9015 72.8638 63.8647 73.1345 63.8647 75.0292V81.5255C63.8647 83.4202 63.9015 83.6548 64.9467 83.7811L65.3797 83.836C65.488 83.9074 65.4519 84.2322 65.3429 84.2864C64.4782 84.2495 63.8647 84.2322 63.1609 84.2322C62.4211 84.2322 61.7722 84.2495 60.9775 84.2864C60.8685 84.2322 60.8331 83.9427 60.9421 83.836L61.2842 83.7811C62.3858 83.6006 62.3858 83.4202 62.3858 81.5255V78.9826C62.3858 78.4405 62.3489 78.4037 61.4827 78.4037H56.3218Z" fill="white"/>
</g>
<mask id="mask17_204_40" style="mask-type:luminance" maskUnits="userSpaceOnUse" x="32" y="70" width="136" height="19">
<path d="M167.669 70.051H32.3308V88.5322H167.669V70.051Z" fill="white"/>
</mask>
<g mask="url(#mask17_204_40)">
<path d="M77.7068 81.1646C77.7068 81.7067 77.7068 83.8533 77.7594 84.3217C77.7241 84.4307 77.6158 84.5202 77.4173 84.5202C77.2015 84.2149 76.6775 83.5834 75.1075 81.7961L70.9211 77.0322C70.4346 76.4728 69.2068 74.9931 68.8278 74.5976H68.7933C68.7196 74.8134 68.7015 75.2277 68.7015 75.7691V79.7036C68.7015 80.551 68.7196 82.8976 69.0263 83.4375C69.1354 83.6375 69.4963 83.745 69.9474 83.7811L70.5068 83.836C70.6151 83.9796 70.5963 84.1969 70.4699 84.2864C69.6579 84.2503 69.0263 84.2322 68.3594 84.2322C67.6008 84.2322 67.1143 84.2503 66.4827 84.2864C66.3564 84.1969 66.3391 83.9427 66.4459 83.836L66.9339 83.7811C67.3481 83.727 67.6369 83.6187 67.7286 83.4202C67.979 82.7713 67.9617 80.5698 67.9617 79.7036V74.4886C67.9617 73.9826 67.9444 73.6029 67.5654 73.1894C67.3128 72.9367 66.8797 72.8097 66.4459 72.7555L66.1391 72.7202C66.0308 72.6119 66.0308 72.342 66.176 72.2683C66.9339 72.3224 67.8895 72.3225 68.2143 72.3225C68.5038 72.3225 68.8105 72.3052 69.0451 72.2683C69.4053 73.1894 71.5346 75.5713 72.1308 76.239L73.8812 78.2052C75.1248 79.5946 76.009 80.6052 76.8579 81.4713H76.8948C76.9669 81.3818 76.9669 81.0924 76.9669 80.7134V76.8518C76.9669 76.0036 76.9489 73.6585 76.6053 73.1164C76.497 72.954 76.209 72.8458 75.4865 72.7555L75.1797 72.7202C75.0534 72.6119 75.0722 72.3224 75.2158 72.2683C76.0459 72.3052 76.6594 72.3225 77.3459 72.3225C78.1211 72.3225 78.5895 72.3052 79.203 72.2683C79.3489 72.3593 79.3489 72.6119 79.2399 72.7202L78.9872 72.7555C78.4105 72.8458 78.0489 72.9909 77.9767 73.1345C77.6699 73.7841 77.7068 76.0217 77.7068 76.8518V81.1646Z" fill="white"/>
</g>
<mask id="mask18_204_40" style="mask-type:luminance" maskUnits="userSpaceOnUse" x="32" y="70" width="136" height="19">
<path d="M167.669 70.051H32.3308V88.5322H167.669V70.051Z" fill="white"/>
</mask>
<g mask="url(#mask18_204_40)">
<path d="M82.476 84.5201C80.9587 84.5201 80.003 84.0517 79.6609 83.8532C79.4436 83.4555 79.2083 82.175 79.173 81.3277C79.2632 81.1998 79.5346 81.1645 79.6068 81.2735C79.8767 82.1923 80.6166 83.9622 82.7098 83.9622C84.2248 83.9622 84.9655 82.969 84.9655 81.8871C84.9655 81.0923 84.8038 80.2089 83.485 79.36L81.7715 78.2404C80.8692 77.6457 79.8226 76.6164 79.8226 75.1374C79.8226 73.4231 81.1587 72.0344 83.5038 72.0344C84.0632 72.0344 84.7128 72.1427 85.1827 72.2683C85.4158 72.3419 85.6685 72.3773 85.8121 72.3773C85.9752 72.8096 86.1384 73.8209 86.1384 74.578C86.0662 74.6871 85.7775 74.7404 85.6865 74.6329C85.4527 73.766 84.9655 72.5931 83.2324 72.5931C81.4639 72.5931 81.085 73.766 81.085 74.5976C81.085 75.6427 81.9519 76.4006 82.6196 76.8164L84.0632 77.7179C85.2 78.4216 86.3188 79.4683 86.3188 81.1825C86.3188 83.1675 84.8211 84.5201 82.476 84.5201Z" fill="white"/>
</g>
<mask id="mask19_204_40" style="mask-type:luminance" maskUnits="userSpaceOnUse" x="32" y="70" width="136" height="19">
<path d="M167.669 70.051H32.3308V88.5322H167.669V70.051Z" fill="white"/>
</mask>
<g mask="url(#mask19_204_40)">
<path d="M97.0294 77.324C96.003 77.324 95.9602 77.3653 95.9602 78.0067V81.0232C95.9602 83.2683 96.0662 83.5683 97.2639 83.6977L97.8858 83.7623C98.0136 83.8473 97.9707 84.2322 97.8414 84.2947C96.6873 84.2525 95.9602 84.2322 95.1264 84.2322C94.2053 84.2322 93.4782 84.2744 92.6444 84.2947C92.5151 84.2322 92.4722 83.8894 92.6016 83.7623L92.9647 83.6977C94.1624 83.4826 94.2053 83.2683 94.2053 81.0232V73.3225C94.2053 71.0766 94.0557 70.7127 92.9437 70.6277L92.3873 70.5849C92.2594 70.4999 92.3023 70.1142 92.4301 70.0503C93.4782 70.0713 94.2053 70.1142 95.1264 70.1142C95.9602 70.1142 96.6873 70.0932 97.6068 70.0503C97.7354 70.1142 97.7782 70.4999 97.6489 70.5849L97.2422 70.6277C96.0031 70.7571 95.9602 71.0766 95.9602 73.3225V75.7826C95.9602 76.4458 96.003 76.4661 97.0294 76.4661H103.147C104.174 76.4661 104.217 76.4458 104.217 75.7826V73.3225C104.217 71.0766 104.174 70.7571 102.911 70.6277L102.504 70.5849C102.376 70.4999 102.419 70.1142 102.548 70.0503C103.53 70.0932 104.259 70.1142 105.135 70.1142C105.97 70.1142 106.698 70.0932 107.66 70.0503C107.788 70.1142 107.832 70.4999 107.702 70.5849L107.253 70.6277C106.014 70.7571 105.97 71.0766 105.97 73.3225V81.0232C105.97 83.2683 106.014 83.5473 107.253 83.6977L107.767 83.7623C107.895 83.8473 107.853 84.2322 107.723 84.2947C106.698 84.2525 105.97 84.2322 105.135 84.2322C104.259 84.2322 103.49 84.2525 102.548 84.2947C102.419 84.2322 102.376 83.8894 102.504 83.7623L102.911 83.6977C104.217 83.4826 104.217 83.2683 104.217 81.0232V78.0067C104.217 77.3653 104.174 77.324 103.147 77.324H97.0294Z" fill="white"/>
</g>
<mask id="mask20_204_40" style="mask-type:luminance" maskUnits="userSpaceOnUse" x="32" y="70" width="136" height="19">
<path d="M167.669 70.051H32.3308V88.5322H167.669V70.051Z" fill="white"/>
</mask>
<g mask="url(#mask20_204_40)">
<path d="M107.632 78.4036C107.632 74.7953 110.34 72.0337 114.055 72.0337C118.224 72.0337 120.317 75.0472 120.317 78.2232C120.317 81.8683 117.538 84.5202 114.055 84.5202C110.05 84.5202 107.632 81.6517 107.632 78.4036ZM118.512 78.7826C118.512 75.8059 117.196 72.5931 113.748 72.5931C111.873 72.5931 109.437 73.875 109.437 77.8269C109.437 80.4961 110.736 83.9623 114.29 83.9623C116.456 83.9623 118.512 82.3382 118.512 78.7826Z" fill="white"/>
</g>
<mask id="mask21_204_40" style="mask-type:luminance" maskUnits="userSpaceOnUse" x="32" y="70" width="136" height="19">
<path d="M167.669 70.051H32.3308V88.5322H167.669V70.051Z" fill="white"/>
</mask>
<g mask="url(#mask21_204_40)">
<path d="M123.583 81.5255C123.583 83.4202 123.62 83.6548 124.774 83.7811L125.261 83.8352C125.37 83.9247 125.335 84.2322 125.225 84.2864C124.196 84.2495 123.602 84.2322 122.879 84.2322C122.122 84.2322 121.472 84.2495 120.678 84.2864C120.569 84.2322 120.534 83.9428 120.643 83.8352L121.022 83.7811C122.067 83.6375 122.104 83.4202 122.104 81.5255V74.8676C122.104 73.333 122.067 73.0262 121.255 72.936L120.606 72.8631C120.48 72.7555 120.497 72.4849 120.643 72.4127C121.598 72.2856 122.718 72.2676 124.214 72.2676C125.712 72.2676 126.831 72.4661 127.68 72.9901C128.51 73.5134 129.123 74.4518 129.123 75.6962C129.123 77.3563 128.095 78.1879 127.319 78.5661C126.524 78.945 125.568 79.1067 124.828 79.1067C124.701 79.054 124.702 78.7826 124.811 78.7473C126.759 78.3856 127.462 77.2841 127.462 75.7149C127.462 73.9638 126.435 72.8285 124.558 72.8285C123.602 72.8285 123.583 72.8992 123.583 73.4781V81.5255Z" fill="white"/>
</g>
<mask id="mask22_204_40" style="mask-type:luminance" maskUnits="userSpaceOnUse" x="32" y="70" width="136" height="19">
<path d="M167.669 70.051H32.3308V88.5322H167.669V70.051Z" fill="white"/>
</mask>
<g mask="url(#mask22_204_40)">
<path d="M131.092 75.0292C131.092 73.1345 131.055 72.8458 130.01 72.7563L129.557 72.7202C129.45 72.6473 129.486 72.3224 129.594 72.2683C130.478 72.3052 131.055 72.3225 131.867 72.3225C132.571 72.3225 133.184 72.3052 133.961 72.2683C134.068 72.3224 134.105 72.6473 133.996 72.7202L133.654 72.7563C132.607 72.8638 132.571 73.1345 132.571 75.0292V77.1059C132.571 77.448 132.607 77.7901 132.807 77.7901C132.968 77.7901 133.184 77.6826 133.31 77.5916C133.563 77.3758 134.033 76.9059 134.232 76.7255L136.18 74.7954C136.523 74.4698 137.407 73.5495 137.587 73.2976C137.678 73.1706 137.715 73.0803 137.715 73.0082C137.715 72.9367 137.643 72.8826 137.407 72.8285L136.92 72.7202C136.794 72.5931 136.811 72.3593 136.956 72.2683C137.587 72.3052 138.31 72.3225 138.941 72.3225C139.572 72.3225 140.186 72.3052 140.726 72.2683C140.854 72.3593 140.872 72.6119 140.763 72.7202C140.295 72.7563 139.592 72.9367 139.086 73.2255C138.581 73.5134 137.569 74.3615 136.559 75.3187L134.935 76.8518C134.682 77.1059 134.519 77.2676 134.519 77.4112C134.519 77.539 134.628 77.6826 134.863 77.9706C136.577 79.9367 137.966 81.5615 139.374 83.0412C139.807 83.4743 140.136 83.7097 140.749 83.7818L141.097 83.836C141.225 83.9255 141.188 84.2322 141.06 84.2871C140.592 84.2503 140.097 84.2322 139.248 84.2322C138.509 84.2322 137.876 84.2503 137.047 84.2871C136.92 84.2503 136.866 83.9427 136.974 83.836L137.389 83.7623C137.643 83.727 137.822 83.6728 137.822 83.5834C137.822 83.4743 137.695 83.3307 137.569 83.1676C137.226 82.7345 136.757 82.2473 136.071 81.4713L134.628 79.8473C133.6 78.6931 133.31 78.3322 132.877 78.3322C132.607 78.3322 132.571 78.5668 132.571 79.1984V81.5262C132.571 83.4202 132.607 83.6728 133.617 83.7818L134.105 83.836C134.212 83.9082 134.177 84.2322 134.068 84.2871C133.184 84.2503 132.571 84.2322 131.867 84.2322C131.127 84.2322 130.514 84.2503 129.774 84.2871C129.666 84.2322 129.629 83.9623 129.738 83.836L130.099 83.7818C131.055 83.6375 131.092 83.4202 131.092 81.5262V75.0292Z" fill="white"/>
</g>
<mask id="mask23_204_40" style="mask-type:luminance" maskUnits="userSpaceOnUse" x="32" y="70" width="136" height="19">
<path d="M167.669 70.051H32.3308V88.5322H167.669V70.051Z" fill="white"/>
</mask>
<g mask="url(#mask23_204_40)">
<path d="M143.477 75.0653C143.477 73.1525 143.441 72.845 142.375 72.7555L141.926 72.7195C141.817 72.6465 141.853 72.3225 141.961 72.2676C142.863 72.3044 143.477 72.3225 144.235 72.3225C144.957 72.3225 145.571 72.3044 146.472 72.2676C146.581 72.3225 146.616 72.6465 146.509 72.7195L146.057 72.7555C144.992 72.845 144.957 73.1525 144.957 75.0653V81.4886C144.957 83.4022 144.992 83.6548 146.057 83.7811L146.509 83.8352C146.616 83.9074 146.581 84.2315 146.472 84.2864C145.571 84.2495 144.957 84.2315 144.235 84.2315C143.477 84.2315 142.932 84.2495 142.03 84.2864C141.922 84.2315 141.886 83.9428 141.995 83.8352L142.375 83.7811C143.441 83.6548 143.477 83.4022 143.477 81.4886V75.0653Z" fill="white"/>
</g>
<mask id="mask24_204_40" style="mask-type:luminance" maskUnits="userSpaceOnUse" x="32" y="70" width="136" height="19">
<path d="M167.669 70.051H32.3308V88.5322H167.669V70.051Z" fill="white"/>
</mask>
<g mask="url(#mask24_204_40)">
<path d="M159.086 81.1646C159.086 81.7067 159.086 83.8533 159.141 84.3217C159.104 84.4307 158.996 84.5202 158.798 84.5202C158.582 84.2149 158.058 83.5834 156.488 81.7961L152.301 77.0322C151.815 76.4728 150.587 74.9931 150.208 74.5976H150.173C150.1 74.8134 150.082 75.2277 150.082 75.7691V79.7036C150.082 80.551 150.1 82.8976 150.407 83.4375C150.516 83.6375 150.877 83.745 151.328 83.7811L151.887 83.836C151.994 83.9796 151.977 84.1969 151.85 84.2864C151.038 84.2503 150.407 84.2322 149.74 84.2322C148.982 84.2322 148.495 84.2503 147.863 84.2864C147.737 84.1969 147.718 83.9427 147.826 83.836L148.314 83.7811C148.729 83.727 149.017 83.6187 149.108 83.4202C149.361 82.7713 149.342 80.5698 149.342 79.7036V74.4886C149.342 73.9826 149.325 73.6029 148.946 73.1894C148.693 72.9367 148.26 72.8097 147.826 72.7555L147.519 72.7202C147.411 72.6119 147.411 72.342 147.556 72.2683C148.314 72.3224 149.27 72.3225 149.595 72.3225C149.884 72.3225 150.191 72.3052 150.425 72.2683C150.787 73.1894 152.915 75.5713 153.51 76.239L155.262 78.2052C156.507 79.5946 157.389 80.6052 158.238 81.4713H158.275C158.347 81.3818 158.347 81.0924 158.347 80.7134V76.8518C158.347 76.0036 158.329 73.6585 157.986 73.1164C157.877 72.954 157.589 72.8458 156.868 72.7555L156.562 72.7202C156.434 72.6119 156.453 72.3224 156.596 72.2683C157.426 72.3052 158.04 72.3225 158.725 72.3225C159.503 72.3225 159.971 72.3052 160.583 72.2683C160.729 72.3593 160.729 72.6119 160.62 72.7202L160.368 72.7555C159.79 72.8458 159.429 72.9909 159.357 73.1345C159.05 73.7841 159.086 76.0217 159.086 76.8518V81.1646Z" fill="white"/>
</g>
<mask id="mask25_204_40" style="mask-type:luminance" maskUnits="userSpaceOnUse" x="32" y="70" width="136" height="19">
<path d="M167.669 70.051H32.3308V88.5322H167.669V70.051Z" fill="white"/>
</mask>
<g mask="url(#mask25_204_40)">
<path d="M163.826 84.5201C162.309 84.5201 161.353 84.0517 161.01 83.8532C160.794 83.4555 160.559 82.175 160.522 81.3277C160.613 81.1998 160.885 81.1645 160.956 81.2735C161.227 82.1923 161.967 83.9622 164.06 83.9622C165.575 83.9622 166.316 82.969 166.316 81.8871C166.316 81.0923 166.153 80.2089 164.835 79.36L163.122 78.2404C162.219 77.6457 161.173 76.6164 161.173 75.1374C161.173 73.4231 162.507 72.0344 164.854 72.0344C165.413 72.0344 166.063 72.1427 166.533 72.2683C166.768 72.3419 167.019 72.3773 167.162 72.3773C167.325 72.8096 167.489 73.8209 167.489 74.578C167.415 74.6871 167.128 74.7404 167.037 74.6329C166.803 73.766 166.316 72.5931 164.584 72.5931C162.814 72.5931 162.435 73.766 162.435 74.5976C162.435 75.6427 163.302 76.4006 163.968 76.8164L165.413 77.7179C166.55 78.4216 167.669 79.4683 167.669 81.1825C167.669 83.1675 166.171 84.5201 163.826 84.5201Z" fill="white"/>
</g>
</svg>
